<?xml version="1.0" encoding="utf-8"?>
<!-- Generator: Adobe Illustrator 25.4.1, SVG Export Plug-In . SVG Version: 6.00 Build 0)  -->
<svg version="1.1" id="Layer_1" xmlns="http://www.w3.org/2000/svg" xmlns:xlink="http://www.w3.org/1999/xlink" x="0px" y="0px"
	 viewBox="0 0 425.2 425.2" style="enable-background:new 0 0 425.2 425.2;" xml:space="preserve">
<style type="text/css">
	.st0{fill:#FF626F;}
	.st1{fill:#E5C9E7;}
	.st2{fill:url(#SVGID_1_);}
	.st3{fill:url(#SVGID_00000133501596906681089160000011395980609304227768_);}
</style>
<g>
	
		<linearGradient id="SVGID_1_" gradientUnits="userSpaceOnUse" x1="76.5" y1="637.1036" x2="348.7" y2="637.1036" gradientTransform="matrix(1 0 0 1 0 -424.5037)">
		<stop  offset="0" style="stop-color:#FF626F"/>
		<stop  offset="0.8528" style="stop-color:#E5C9E7"/>
	</linearGradient>
	<path class="st2" d="M299.8,163.7c-15.2,0-28.8,7-37.8,17.9l0,0c-15.2,18.6-44.4,16.4-56.6-4.3l0,0c-12.1-20.3-34.2-34-59.6-34
		c-38.2,0-69.3,31-69.3,69.3s31,69.3,69.3,69.3c25.4,0,47.5-13.6,59.6-34l0,0c12.3-20.7,41.4-22.9,56.6-4.3l0,0
		c9,10.9,22.6,17.9,37.8,17.9c27,0,48.9-21.9,48.9-48.9C348.6,185.5,326.8,163.7,299.8,163.7z"/>
</g>
</svg>
