<?xml version="1.0" encoding="utf-8"?>
<!-- Generator: Adobe Illustrator 25.4.1, SVG Export Plug-In . SVG Version: 6.00 Build 0)  -->
<svg version="1.1" id="Layer_1" xmlns="http://www.w3.org/2000/svg" xmlns:xlink="http://www.w3.org/1999/xlink" x="0px" y="0px"
	 viewBox="0 0 425.2 229.6" style="enable-background:new 0 0 425.2 229.6;" xml:space="preserve">
<style type="text/css">
	.st0{fill:url(#SVGID_1_);}
</style>
<g>
	
		<linearGradient id="SVGID_1_" gradientUnits="userSpaceOnUse" x1="18.2" y1="-308.5163" x2="407" y2="-308.5163" gradientTransform="matrix(1 0 0 -1 0 -193.7226)">
		<stop  offset="0" style="stop-color:#FF626F"/>
		<stop  offset="0.8528" style="stop-color:#E5C9E7"/>
	</linearGradient>
	<path class="st0" d="M337.2,44.9c-21.7,0-41.1,10-54,25.6l0,0c-21.7,26.6-63.4,23.4-80.8-6.1l0,0c-17.3-29-48.8-48.6-85.1-48.6
		c-54.6,0-99,44.3-99,99s44.3,99,99,99c36.3,0,67.8-19.4,85.1-48.6l0,0c17.6-29.6,59.1-32.7,80.8-6.1l0,0
		c12.9,15.6,32.3,25.6,54,25.6c38.6,0,69.8-31.3,69.8-69.8C406.9,76.1,375.7,44.9,337.2,44.9z"/>
</g>
</svg>
